,
.   http://www.scenetime.com/signup.php  ---&gt;  Hottest scene tracker on the net !!!  

    Join Now   http://www.scenetime.com/signup.php

    seed back for speed


 



...................................NFO:.................................................
                                                                             
 :::  :::  :::::  :::   :::   :::::    ::: :::     :::    :::::    
 :::  :::  ::::::::::  :::   :::::::    ::::: :::     :::   :::::::   
 :::  ::::::::::::::::::::::::::: ::: ::: :::     :::  :::::::::  
 :::  ::: :::::::::::: :::::: ::: ::: :::     :::  ::::::  
 :::  ::: ::: :::::::::: :::  ::: ::: :::  :::     :::  ::: :::  
 :::  ::: ::: :::::::::  :::  ::: ::: :::  :::  :  :::  ::: :::  
 :::  ::: ::: :::::::::: :::  ::: ::: :::  ::: ::: :::  ::: :::  
 :::  ::: ::: ::::::::::::  ::: ::: :::  ::: : : :::  ::: :::  
 :::..::: ::: :::::: ::::::  ::: ::: :::  ::::: :::::  ::: :::  
 ::::::::: :::::: ::::::  ::: ::::: ::::: :::::  ::: :::  
  ::::  ::: ::::::  ::::::  ::: :::  ::::   ::::  ::: :::  

                                                                              
                  NOTES                    
                                                                              
                  NOTES                    
                                                                              
                                                                              
                                                                              
 Encoded By .......:UnKnOwN                                                   
 Runtime ..........:1:24                                                      
 IMDb URL .........:http://www.imdb.com/title/tt1674780/                      
 Language .........:English                                                   
 File Size ........:1.25gb                                                    
 Release Date ......... 2011                                                  
 Source       ......... DVDR/R2                                               
 File Type    ......... Single AVI                                            
 PS3 Compatible ....... Who Cares                                             
 Genre        ......... Horror/Drama                                          
                                                                              
                                                                              
 Video                                                                        
  ID                               : 0                                        
  Format                           : MPEG-4 Visual                            
  Format profile                   : Advanced Simple@L5                        
  Format settings, BVOP            : Yes                                       
  Format settings, QPel            : No                                        
  Format settings, GMC             : No warppoints                             
  Format settings, Matrix          : Custom                                    
  Codec ID                         : XVID                                      
  Codec ID/Hint                    : XviD                                      
  Duration                         : 1h 24mn                                   
  Bit rate                         : 1656Kbps                                  
  Width                            : 680ixels                                  
  Height                           : 364pixels                                 
  Display aspect ratio             : 16:9                                      
  Frame rate                       : 25.000fps                                 
  Color space                      : YUV                                       
  Chroma subsampling               : 4:2:0                                     
  Bit depth                        : 8 bits                                    
  Scan type                        : Progressive                               
  Bits/(Pixel*Frame)               : 0.234                                     
  Stream size                      : 892 MiB (86%)                             
  Writing library                  : XviD 1.2.1 (UTC 2008-12-04)              
                                                                              
                                                                              
 Audio                                                                         
 ID                               : 1                                          
 Format                           : Ac3                                        
 Format/Info                      : AC3                                        
 Mode extension                   : CM (complete main)                         
 Codec ID                         : 2000                                       
 Duration                         : 1h 24mn                                    
 Bit rate mode                    : Constant                                   
 Bit rate                         : 448kbps                                    
 Channel(s)                       : 6channels                                  
 Channel positions                : Front: L  R                                
 Sampling rate                    : 48.0 KHz                                   
 Bit depth                        : 16 bits                                    
 Stream size                      : 302 MiB                                    
 Alignment                        : Aligned on interleaves                     
 Interleave, duration             : 42 ms (1.00 video frame)                   
 Interleave, preload duration     : 512 ms                                    
                                                                              
                                                                              
                                                                              
                                                                               
                                                                              
                                                                              
                                                                              
                                 SYSPNOSIS                                                                   
    A Study for a Portrait of a Serial Killer, is a feature length horror     
 containing genuine archive that takes the audience on a unique journey into  
   the mind of Peter Sutcliffe The Yorkshire Ripper. The 90min film starts    
 from his formative years in Yorkshire, the largest police manhunt in history 
    to his on-going psychological treatment in Broadmoor Hospital.            
  PETER avoids the established genre clichs, of blood and gore and                                       
   instead asks us to think about issues of retribution, punishment,                                 
                            compassion and guilt.                                          
                                                                              
                              RELEASE INFO                                       
            Good psychological horror not your typical gore flick             
                                                                              
                                                                              
                                                                              
                                                                               
                                                                              
                                                                              
                                                                              
                                                                              
                                                                              
                                                                              

                 
              
                                                                              
                              LOOKING FOR                                     
                                                                              
           Whomever put midget porn in my mailbox wtf man call me(:           
                                                                              
                                                                              
                                                                              
                                                                              

               GREETZ & RESPECT               
  
                          NOBODY YET WILL LET YOU KNOW                        
                                                                              
                          MORE GOODIES COMING REAL SOON